<svg width="27" height="27" viewBox="0 0 27 27" fill="none" xmlns="http://www.w3.org/2000/svg">
<path d="M24.6095 0H1.88712C0.845951 0 0 0.857782 0 1.91078V24.5917C0 25.6447 0.845951 26.5025 1.88712 26.5025H24.6095C25.6506 26.5025 26.5025 25.6447 26.5025 24.5917V1.91078C26.5025 0.857782 25.6506 0 24.6095 0ZM8.00991 22.7164H4.08186V10.0686H8.01583V22.7164H8.00991ZM6.04588 8.34119C4.78583 8.34119 3.76833 7.31777 3.76833 6.06363C3.76833 4.80949 4.78583 3.78607 6.04588 3.78607C7.30002 3.78607 8.32344 4.80949 8.32344 6.06363C8.32344 7.32368 7.30594 8.34119 6.04588 8.34119ZM22.7342 22.7164H18.8061V16.5641C18.8061 15.097 18.7766 13.2098 16.7652 13.2098C14.7184 13.2098 14.4048 14.8071 14.4048 16.4576V22.7164H10.4768V10.0686H14.2451V11.796H14.2983C14.8248 10.8021 16.1086 9.75505 18.0193 9.75505C21.9947 9.75505 22.7342 12.3757 22.7342 15.7832V22.7164Z" fill="white"/>
</svg>
