<svg width="15" height="15" viewBox="0 0 15 15" fill="none" xmlns="http://www.w3.org/2000/svg">
<path fill-rule="evenodd" clip-rule="evenodd" d="M8.22335 0.176397C7.72747 -0.0587983 7.15219 -0.058799 6.65631 0.176395C6.31302 0.339213 6.06951 0.647412 5.85373 0.995746C5.63679 1.34597 5.39877 1.82202 5.10237 2.41485L5.10236 2.41487L5.09076 2.43808L4.85186 2.91588C4.64861 3.32238 4.58951 3.42891 4.5153 3.50658C4.43876 3.58668 4.34699 3.65069 4.24536 3.69481C4.14682 3.73759 4.02643 3.75622 3.57473 3.80642L3.35787 3.83051L3.33184 3.83341H3.33184C2.61977 3.91252 2.05094 3.97572 1.62029 4.06331C1.19557 4.1497 0.799742 4.27759 0.522665 4.56029C0.126232 4.96475 -0.0604009 5.53011 0.0173119 6.0911C0.0716268 6.48319 0.313515 6.82163 0.603331 7.14391C0.89719 7.47065 1.31659 7.86015 1.84161 8.34767L1.86079 8.36549L2.08975 8.57806C2.48744 8.94735 2.58941 9.05181 2.64654 9.16305C2.70552 9.27794 2.73694 9.40494 2.7383 9.53407C2.73961 9.65894 2.69726 9.80143 2.51513 10.3205L2.50652 10.3451L2.50651 10.3451C2.23773 11.1111 2.02488 11.7178 1.90403 12.1897C1.78663 12.6482 1.72085 13.0984 1.8739 13.4882C2.08927 14.0368 2.55587 14.448 3.12721 14.5926C3.53207 14.6951 3.96656 14.5757 4.40268 14.4037C4.85039 14.2271 5.41731 13.9436 6.13211 13.5862L6.15551 13.5745L6.7113 13.2966C7.08604 13.1092 7.18837 13.0631 7.28657 13.0447C7.38784 13.0257 7.49183 13.0257 7.59309 13.0447C7.69129 13.0631 7.79362 13.1092 8.16836 13.2966L8.72415 13.5745L8.74762 13.5862C9.46239 13.9436 10.0293 14.2271 10.477 14.4037C10.9131 14.5757 11.3476 14.6951 11.7524 14.5926C12.3238 14.448 12.7904 14.0368 13.0058 13.4882C13.1588 13.0984 13.093 12.6482 12.9756 12.1897C12.8548 11.7178 12.6419 11.1111 12.3731 10.3451V10.345L12.3645 10.3205C12.1824 9.80143 12.1401 9.65894 12.1413 9.53407C12.1427 9.40494 12.1741 9.27794 12.2332 9.16305C12.2903 9.05181 12.3922 8.94735 12.7899 8.57806L13.0189 8.36549L13.0381 8.3476C13.5631 7.86009 13.9825 7.47065 14.2763 7.14391C14.5662 6.82163 14.808 6.48319 14.8624 6.0911C14.9401 5.53011 14.7535 4.96475 14.357 4.56029C14.0799 4.27759 13.6841 4.1497 13.2594 4.06331C12.8287 3.97572 12.2599 3.91252 11.5478 3.83341L11.5218 3.83051L11.305 3.80642C10.8532 3.75622 10.7328 3.73759 10.6343 3.69481C10.5327 3.65069 10.4409 3.58668 10.3644 3.50658C10.2902 3.42891 10.2311 3.32238 10.0278 2.91587L9.78892 2.43809L9.77728 2.41486C9.48087 1.82202 9.2429 1.34597 9.02595 0.995746C8.81019 0.647412 8.5667 0.339219 8.22335 0.176397Z" fill="#FFC250"/>
</svg>
