<svg width="31" height="25" viewBox="0 0 31 25" fill="none" xmlns="http://www.w3.org/2000/svg">
<path d="M27.1751 6.13071C27.1944 6.39976 27.1944 6.66887 27.1944 6.93792C27.1944 15.1442 20.9483 24.5998 9.53244 24.5998C6.01542 24.5998 2.74827 23.5812 0 21.8132C0.499702 21.8708 0.980119 21.89 1.49905 21.89C4.40101 21.89 7.07244 20.9099 9.20572 19.2379C6.47667 19.1802 4.18964 17.3929 3.40167 14.9329C3.78607 14.9905 4.17042 15.0289 4.57405 15.0289C5.13137 15.0289 5.68875 14.952 6.20762 14.8176C3.36327 14.241 1.22994 11.7426 1.22994 8.72524V8.64839C2.05631 9.10964 3.01732 9.39792 4.03583 9.43631C2.36381 8.32161 1.26839 6.41899 1.26839 4.26649C1.26839 3.11339 1.57583 2.05637 2.11399 1.13387C5.16976 4.90072 9.76304 7.36066 14.9136 7.62976C14.8175 7.16851 14.7598 6.6881 14.7598 6.20762C14.7598 2.78667 17.5273 0 20.9674 0C22.7548 0 24.3691 0.749524 25.503 1.9603C26.906 1.69125 28.2513 1.17232 29.4429 0.46125C28.9816 1.90268 28.0014 3.11345 26.7138 3.88214C27.963 3.74768 29.1738 3.40167 30.2885 2.92125C29.443 4.15119 28.3859 5.24661 27.1751 6.13072V6.13071Z" fill="white"/>
</svg>
