<svg width="33" height="23" viewBox="0 0 33 23" fill="none" xmlns="http://www.w3.org/2000/svg">
<path d="M31.6328 3.55435C31.2612 2.15528 30.1664 1.05342 28.7764 0.679482C26.2569 0 16.1539 0 16.1539 0C16.1539 0 6.05103 0 3.53146 0.679482C2.14144 1.05347 1.04667 2.15528 0.675104 3.55435C0 6.09025 0 11.3812 0 11.3812C0 11.3812 0 16.6721 0.675104 19.208C1.04667 20.6071 2.14144 21.663 3.53146 22.037C6.05103 22.7164 16.1539 22.7164 16.1539 22.7164C16.1539 22.7164 26.2568 22.7164 28.7764 22.037C30.1664 21.663 31.2612 20.6071 31.6328 19.208C32.3079 16.6721 32.3079 11.3812 32.3079 11.3812C32.3079 11.3812 32.3079 6.09025 31.6328 3.55435V3.55435ZM12.8497 16.1849V6.57741L21.2938 11.3813L12.8497 16.1849V16.1849Z" fill="white"/>
</svg>
